<svg xmlns="http://www.w3.org/2000/svg" viewBox="0 0 24 24" fill="none">
  <!-- Rounded outer border matching ShortBrew LogoMark -->
  <rect x="0.5" y="0.5" width="23" height="23" rx="6" stroke="#F5B544" stroke-width="1.5" stroke-opacity="0.35" fill="#0B0F14" />
  
  <!-- Steam rise -->
  <path
    d="M8 7.5 C 8 5.5, 9.5 5.5, 9.5 4 M12 7.5 C 12 5.5, 13.5 5.5, 13.5 4 M16 7.5 C 16 5.5, 17.5 5.5, 17.5 4"
    stroke="#F5B544"
    stroke-width="1.3"
    stroke-linecap="round"
  />
  <!-- Brew mug body -->
  <path
    d="M6.5 9.5h9v5.5a3.5 3.5 0 0 1-3.5 3.5h-2a3.5 3.5 0 0 1-3.5-3.5V9.5z"
    stroke="#F5B544"
    stroke-width="1.6"
    stroke-linejoin="round"
    fill="none"
  />
  <!-- Mug handle -->
  <path
    d="M15.5 11h1.8a2 2 0 0 1 0 4h-1.8"
    stroke="#F5B544"
    stroke-width="1.5"
    stroke-linecap="round"
  />
  <!-- Pulse dot -->
  <circle cx="13.5" cy="4" r="1.2" fill="#F5B544" />
</svg>
